<svg width="260" height="90" viewBox="0 0 260 90" fill="none" xmlns="http://www.w3.org/2000/svg">
<rect x="1" y="1" width="258" height="88" rx="11" fill="white"/>
<rect x="1" y="1" width="258" height="88" rx="11" stroke="black" stroke-width="2"/>
<path d="M56.0273 54.75C54.9492 57.1445 54.4297 58.2148 53.0429 60.3281C51.1015 63.2812 48.3633 66.9687 44.9804 66.9922C41.9687 67.0195 41.1914 65.0273 37.1015 65.0625C33.0156 65.082 32.164 67.0312 29.1484 67C25.7617 66.9688 23.1719 63.6484 21.2304 60.6992C15.8008 52.4297 15.2265 42.7344 18.582 37.5781C20.957 33.9219 24.7109 31.7734 28.2383 31.7734C31.832 31.7734 34.0898 33.7461 37.0586 33.7461C39.9414 33.7461 41.6953 31.7695 45.8515 31.7695C48.9922 31.7695 52.3125 33.4805 54.6875 36.4336C46.9219 40.6914 48.1836 51.7812 56.0273 54.75ZM42.6953 28.4688C44.207 26.5273 45.3554 23.7891 44.9375 21C42.4726 21.168 39.5898 22.7422 37.9062 24.7812C36.3789 26.6406 35.1133 29.3984 35.6054 32.0664C38.2969 32.1523 41.082 30.5469 42.6953 28.4688Z" fill="black"/>
<path d="M84.438 15.672V17.59H81.834V25.5H79.44V17.59H76.836V15.672H84.438ZM88.0335 17.59V19.578H91.2395V21.426H88.0335V23.582H91.6595V25.5H85.6395V15.672H91.6595V17.59H88.0335ZM95.6077 23.652H98.7437V25.5H93.2137V15.672H95.6077V23.652ZM102.28 17.59V19.578H105.486V21.426H102.28V23.582H105.906V25.5H99.8856V15.672H105.906V17.59H102.28ZM107.054 20.572C107.054 19.6013 107.264 18.738 107.684 17.982C108.104 17.2167 108.687 16.624 109.434 16.204C110.19 15.7747 111.044 15.56 111.996 15.56C113.162 15.56 114.161 15.868 114.992 16.484C115.822 17.1 116.378 17.94 116.658 19.004H114.026C113.83 18.5933 113.55 18.2807 113.186 18.066C112.831 17.8513 112.425 17.744 111.968 17.744C111.23 17.744 110.633 18.0007 110.176 18.514C109.718 19.0273 109.49 19.7133 109.49 20.572C109.49 21.4307 109.718 22.1167 110.176 22.63C110.633 23.1433 111.23 23.4 111.968 23.4C112.425 23.4 112.831 23.2927 113.186 23.078C113.55 22.8633 113.83 22.5507 114.026 22.14H116.658C116.378 23.204 115.822 24.044 114.992 24.66C114.161 25.2667 113.162 25.57 111.996 25.57C111.044 25.57 110.19 25.36 109.434 24.94C108.687 24.5107 108.104 23.918 107.684 23.162C107.264 22.406 107.054 21.5427 107.054 20.572ZM126.636 15.672V25.5H124.242V21.454H120.518V25.5H118.124V15.672H120.518V19.522H124.242V15.672H126.636ZM134.482 23.764H130.814L130.226 25.5H127.72L131.276 15.672H134.048L137.604 25.5H135.07L134.482 23.764ZM133.866 21.916L132.648 18.318L131.444 21.916H133.866ZM143.698 25.5L141.654 21.79H141.08V25.5H138.686V15.672H142.704C143.479 15.672 144.137 15.8073 144.678 16.078C145.229 16.3487 145.64 16.722 145.91 17.198C146.181 17.6647 146.316 18.1873 146.316 18.766C146.316 19.4193 146.13 20.0027 145.756 20.516C145.392 21.0293 144.851 21.3933 144.132 21.608L146.4 25.5H143.698ZM141.08 20.096H142.564C143.003 20.096 143.33 19.9887 143.544 19.774C143.768 19.5593 143.88 19.256 143.88 18.864C143.88 18.4907 143.768 18.1967 143.544 17.982C143.33 17.7673 143.003 17.66 142.564 17.66H141.08V20.096ZM154.343 18.78C154.166 18.4533 153.909 18.206 153.573 18.038C153.247 17.8607 152.859 17.772 152.411 17.772C151.637 17.772 151.016 18.0287 150.549 18.542C150.083 19.046 149.849 19.7227 149.849 20.572C149.849 21.4773 150.092 22.1867 150.577 22.7C151.072 23.204 151.749 23.456 152.607 23.456C153.195 23.456 153.69 23.3067 154.091 23.008C154.502 22.7093 154.801 22.28 154.987 21.72H151.949V19.956H157.157V22.182C156.98 22.7793 156.677 23.3347 156.247 23.848C155.827 24.3613 155.291 24.7767 154.637 25.094C153.984 25.4113 153.247 25.57 152.425 25.57C151.455 25.57 150.587 25.36 149.821 24.94C149.065 24.5107 148.473 23.918 148.043 23.162C147.623 22.406 147.413 21.5427 147.413 20.572C147.413 19.6013 147.623 18.738 148.043 17.982C148.473 17.2167 149.065 16.624 149.821 16.204C150.577 15.7747 151.441 15.56 152.411 15.56C153.587 15.56 154.577 15.8447 155.379 16.414C156.191 16.9833 156.728 17.772 156.989 18.78H154.343ZM160.877 17.59V19.578H164.083V21.426H160.877V23.582H164.503V25.5H158.483V15.672H164.503V17.59H160.877ZM171.069 25.5L169.025 21.79H168.451V25.5H166.057V15.672H170.075C170.85 15.672 171.508 15.8073 172.049 16.078C172.6 16.3487 173.011 16.722 173.281 17.198C173.552 17.6647 173.687 18.1873 173.687 18.766C173.687 19.4193 173.501 20.0027 173.127 20.516C172.763 21.0293 172.222 21.3933 171.503 21.608L173.771 25.5H171.069ZM168.451 20.096H169.935C170.374 20.096 170.701 19.9887 170.915 19.774C171.139 19.5593 171.251 19.256 171.251 18.864C171.251 18.4907 171.139 18.1967 170.915 17.982C170.701 17.7673 170.374 17.66 169.935 17.66H168.451V20.096ZM181.713 25.598C180.994 25.598 180.35 25.4813 179.781 25.248C179.212 25.0147 178.754 24.6693 178.409 24.212C178.073 23.7547 177.896 23.204 177.877 22.56H180.425C180.462 22.924 180.588 23.204 180.803 23.4C181.018 23.5867 181.298 23.68 181.643 23.68C181.998 23.68 182.278 23.6007 182.483 23.442C182.688 23.274 182.791 23.0453 182.791 22.756C182.791 22.5133 182.707 22.3127 182.539 22.154C182.38 21.9953 182.18 21.8647 181.937 21.762C181.704 21.6593 181.368 21.5427 180.929 21.412C180.294 21.216 179.776 21.02 179.375 20.824C178.974 20.628 178.628 20.3387 178.339 19.956C178.05 19.5733 177.905 19.074 177.905 18.458C177.905 17.5433 178.236 16.8293 178.899 16.316C179.562 15.7933 180.425 15.532 181.489 15.532C182.572 15.532 183.444 15.7933 184.107 16.316C184.77 16.8293 185.124 17.548 185.171 18.472H182.581C182.562 18.1547 182.446 17.9073 182.231 17.73C182.016 17.5433 181.741 17.45 181.405 17.45C181.116 17.45 180.882 17.5293 180.705 17.688C180.528 17.8373 180.439 18.0567 180.439 18.346C180.439 18.6633 180.588 18.9107 180.887 19.088C181.186 19.2653 181.652 19.4567 182.287 19.662C182.922 19.8767 183.435 20.082 183.827 20.278C184.228 20.474 184.574 20.7587 184.863 21.132C185.152 21.5053 185.297 21.986 185.297 22.574C185.297 23.134 185.152 23.6427 184.863 24.1C184.583 24.5573 184.172 24.9213 183.631 25.192C183.09 25.4627 182.45 25.598 181.713 25.598ZM189.122 15.672V21.552C189.122 22.14 189.267 22.5927 189.556 22.91C189.846 23.2273 190.27 23.386 190.83 23.386C191.39 23.386 191.82 23.2273 192.118 22.91C192.417 22.5927 192.566 22.14 192.566 21.552V15.672H194.96V21.538C194.96 22.4153 194.774 23.1573 194.4 23.764C194.027 24.3707 193.523 24.828 192.888 25.136C192.263 25.444 191.563 25.598 190.788 25.598C190.014 25.598 189.318 25.4487 188.702 25.15C188.096 24.842 187.615 24.3847 187.26 23.778C186.906 23.162 186.728 22.4153 186.728 21.538V15.672H189.122ZM201.653 25.5L199.609 21.79H199.035V25.5H196.641V15.672H200.659C201.434 15.672 202.092 15.8073 202.633 16.078C203.184 16.3487 203.595 16.722 203.865 17.198C204.136 17.6647 204.271 18.1873 204.271 18.766C204.271 19.4193 204.085 20.0027 203.711 20.516C203.347 21.0293 202.806 21.3933 202.087 21.608L204.355 25.5H201.653ZM199.035 20.096H200.519C200.958 20.096 201.285 19.9887 201.499 19.774C201.723 19.5593 201.835 19.256 201.835 18.864C201.835 18.4907 201.723 18.1967 201.499 17.982C201.285 17.7673 200.958 17.66 200.519 17.66H199.035V20.096Z" fill="black"/>
<path d="M92.404 62.244H83.508L82.036 66.5H77.332L85.364 44.132H90.58L98.612 66.5H93.876L92.404 62.244ZM91.188 58.66L87.956 49.316L84.724 58.66H91.188ZM106.094 51.332C106.67 50.5213 107.46 49.8493 108.462 49.316C109.486 48.7613 110.649 48.484 111.95 48.484C113.465 48.484 114.83 48.8573 116.046 49.604C117.284 50.3507 118.254 51.4173 118.958 52.804C119.684 54.1693 120.046 55.7587 120.046 57.572C120.046 59.3853 119.684 60.996 118.958 62.404C118.254 63.7907 117.284 64.868 116.046 65.636C114.83 66.404 113.465 66.788 111.95 66.788C110.649 66.788 109.497 66.5213 108.494 65.988C107.513 65.4547 106.713 64.7827 106.094 63.972V74.948H101.614V48.772H106.094V51.332ZM115.47 57.572C115.47 56.5053 115.246 55.588 114.798 54.82C114.372 54.0307 113.796 53.4333 113.07 53.028C112.366 52.6227 111.598 52.42 110.766 52.42C109.956 52.42 109.188 52.6333 108.462 53.06C107.758 53.4653 107.182 54.0627 106.734 54.852C106.308 55.6413 106.094 56.5693 106.094 57.636C106.094 58.7027 106.308 59.6307 106.734 60.42C107.182 61.2093 107.758 61.8173 108.462 62.244C109.188 62.6493 109.956 62.852 110.766 62.852C111.598 62.852 112.366 62.6387 113.07 62.212C113.796 61.7853 114.372 61.1773 114.798 60.388C115.246 59.5987 115.47 58.66 115.47 57.572ZM127.782 51.332C128.358 50.5213 129.147 49.8493 130.15 49.316C131.174 48.7613 132.336 48.484 133.638 48.484C135.152 48.484 136.518 48.8573 137.734 49.604C138.971 50.3507 139.942 51.4173 140.646 52.804C141.371 54.1693 141.734 55.7587 141.734 57.572C141.734 59.3853 141.371 60.996 140.646 62.404C139.942 63.7907 138.971 64.868 137.734 65.636C136.518 66.404 135.152 66.788 133.638 66.788C132.336 66.788 131.184 66.5213 130.182 65.988C129.2 65.4547 128.4 64.7827 127.782 63.972V74.948H123.302V48.772H127.782V51.332ZM137.158 57.572C137.158 56.5053 136.934 55.588 136.486 54.82C136.059 54.0307 135.483 53.4333 134.758 53.028C134.054 52.6227 133.286 52.42 132.454 52.42C131.643 52.42 130.875 52.6333 130.15 53.06C129.446 53.4653 128.87 54.0627 128.422 54.852C127.995 55.6413 127.782 56.5693 127.782 57.636C127.782 58.7027 127.995 59.6307 128.422 60.42C128.87 61.2093 129.446 61.8173 130.15 62.244C130.875 62.6493 131.643 62.852 132.454 62.852C133.286 62.852 134.054 62.6387 134.758 62.212C135.483 61.7853 136.059 61.1773 136.486 60.388C136.934 59.5987 137.158 58.66 137.158 57.572ZM160.326 66.724C158.769 66.724 157.361 66.4573 156.102 65.924C154.865 65.3907 153.884 64.6227 153.158 63.62C152.433 62.6173 152.06 61.4333 152.038 60.068H156.838C156.902 60.9853 157.222 61.7107 157.798 62.244C158.396 62.7773 159.206 63.044 160.23 63.044C161.276 63.044 162.097 62.7987 162.694 62.308C163.292 61.796 163.59 61.1347 163.59 60.324C163.59 59.6627 163.388 59.1187 162.982 58.692C162.577 58.2653 162.065 57.9347 161.446 57.7C160.849 57.444 160.017 57.1667 158.95 56.868C157.5 56.4413 156.316 56.0253 155.398 55.62C154.502 55.1933 153.724 54.564 153.062 53.732C152.422 52.8787 152.102 51.748 152.102 50.34C152.102 49.0173 152.433 47.8653 153.094 46.884C153.756 45.9027 154.684 45.156 155.878 44.644C157.073 44.1107 158.438 43.844 159.974 43.844C162.278 43.844 164.145 44.4093 165.574 45.54C167.025 46.6493 167.825 48.2067 167.974 50.212H163.046C163.004 49.444 162.673 48.8147 162.054 48.324C161.457 47.812 160.657 47.556 159.654 47.556C158.78 47.556 158.076 47.78 157.542 48.228C157.03 48.676 156.774 49.3267 156.774 50.18C156.774 50.7773 156.966 51.2787 157.35 51.684C157.756 52.068 158.246 52.388 158.822 52.644C159.42 52.8787 160.252 53.156 161.318 53.476C162.769 53.9027 163.953 54.3293 164.87 54.756C165.788 55.1827 166.577 55.8227 167.238 56.676C167.9 57.5293 168.23 58.6493 168.23 60.036C168.23 61.2307 167.921 62.34 167.302 63.364C166.684 64.388 165.777 65.2093 164.582 65.828C163.388 66.4253 161.969 66.724 160.326 66.724ZM177.33 52.452V61.028C177.33 61.6253 177.469 62.0627 177.746 62.34C178.045 62.596 178.536 62.724 179.218 62.724H181.298V66.5H178.482C174.706 66.5 172.818 64.6653 172.818 60.996V52.452H170.706V48.772H172.818V44.388H177.33V48.772H181.298V52.452H177.33ZM192.393 66.788C190.686 66.788 189.15 66.4147 187.785 65.668C186.419 64.9 185.342 63.8227 184.553 62.436C183.785 61.0493 183.401 59.4493 183.401 57.636C183.401 55.8227 183.795 54.2227 184.585 52.836C185.395 51.4493 186.494 50.3827 187.881 49.636C189.267 48.868 190.814 48.484 192.521 48.484C194.227 48.484 195.774 48.868 197.161 49.636C198.547 50.3827 199.635 51.4493 200.425 52.836C201.235 54.2227 201.641 55.8227 201.641 57.636C201.641 59.4493 201.225 61.0493 200.392 62.436C199.582 63.8227 198.473 64.9 197.065 65.668C195.678 66.4147 194.121 66.788 192.393 66.788ZM192.393 62.884C193.203 62.884 193.961 62.692 194.665 62.308C195.39 61.9027 195.966 61.3053 196.393 60.516C196.819 59.7267 197.033 58.7667 197.033 57.636C197.033 55.9507 196.585 54.66 195.689 53.764C194.814 52.8467 193.737 52.388 192.457 52.388C191.177 52.388 190.099 52.8467 189.225 53.764C188.371 54.66 187.945 55.9507 187.945 57.636C187.945 59.3213 188.361 60.6227 189.193 61.54C190.046 62.436 191.113 62.884 192.393 62.884ZM209.407 51.524C209.983 50.5853 210.729 49.8493 211.647 49.316C212.585 48.7827 213.652 48.516 214.847 48.516V53.22H213.663C212.255 53.22 211.188 53.5507 210.463 54.212C209.759 54.8733 209.407 56.0253 209.407 57.668V66.5H204.927V48.772H209.407V51.524ZM234.344 57.252C234.344 57.892 234.302 58.468 234.216 58.98H221.256C221.363 60.26 221.811 61.2627 222.6 61.988C223.39 62.7133 224.36 63.076 225.512 63.076C227.176 63.076 228.36 62.3613 229.064 60.932H233.896C233.384 62.6387 232.403 64.0467 230.952 65.156C229.502 66.244 227.72 66.788 225.608 66.788C223.902 66.788 222.366 66.4147 221 65.668C219.656 64.9 218.6 63.8227 217.832 62.436C217.086 61.0493 216.712 59.4493 216.712 57.636C216.712 55.8013 217.086 54.1907 217.832 52.804C218.579 51.4173 219.624 50.3507 220.968 49.604C222.312 48.8573 223.859 48.484 225.608 48.484C227.294 48.484 228.798 48.8467 230.12 49.572C231.464 50.2973 232.499 51.332 233.224 52.676C233.971 53.9987 234.344 55.524 234.344 57.252ZM229.704 55.972C229.683 54.82 229.267 53.9027 228.456 53.22C227.646 52.516 226.654 52.164 225.48 52.164C224.371 52.164 223.432 52.5053 222.664 53.188C221.918 53.8493 221.459 54.7773 221.288 55.972H229.704Z" fill="black"/>
</svg>
