<svg width="299" height="93" viewBox="0 0 299 93" fill="none" xmlns="http://www.w3.org/2000/svg">
<rect width="299" height="93" rx="12" fill="black"/>
<g filter="url(#filter0_ii_14_16)">
<path d="M22.0026 12.9264C21.3725 13.6449 21 14.76 21 16.2039V67.7954C21 69.2417 21.3725 70.3544 22.0026 71.0729L22.1629 71.2409L48.9911 42.3402V41.9997V41.6591L22.1629 12.7561L22.0026 12.9264Z" fill="url(#paint0_linear_14_16)"/>
<path d="M57.932 51.9764L48.9907 42.3397V41.9991V41.6586L57.9342 32.0242L58.1356 32.1479L68.7313 38.633C71.7565 40.4852 71.7565 43.5154 68.7313 45.37L58.1356 51.8551L57.932 51.9764Z" fill="url(#paint1_linear_14_16)"/>
<g filter="url(#filter1_i_14_16)">
<path d="M58.1358 51.8526L48.9887 41.999L22.0024 71.0723C22.9986 72.2107 24.6465 72.3507 26.5023 71.2169L58.1358 51.8526Z" fill="url(#paint2_linear_14_16)"/>
</g>
<path d="M58.136 32.146L26.5026 12.784C24.6467 11.6479 22.9988 11.7902 22.0027 12.9286L48.9912 42.0019L58.136 32.146Z" fill="url(#paint3_linear_14_16)"/>
</g>
<path d="M92.938 17.172V19.09H90.334V27H87.94V19.09H85.336V17.172H92.938ZM96.5335 19.09V21.078H99.7395V22.926H96.5335V25.082H100.159V27H94.1395V17.172H100.159V19.09H96.5335ZM104.108 25.152H107.244V27H101.714V17.172H104.108V25.152ZM110.78 19.09V21.078H113.986V22.926H110.78V25.082H114.406V27H108.386V17.172H114.406V19.09H110.78ZM115.554 22.072C115.554 21.1013 115.764 20.238 116.184 19.482C116.604 18.7167 117.187 18.124 117.934 17.704C118.69 17.2747 119.544 17.06 120.496 17.06C121.662 17.06 122.661 17.368 123.492 17.984C124.322 18.6 124.878 19.44 125.158 20.504H122.526C122.33 20.0933 122.05 19.7807 121.686 19.566C121.331 19.3513 120.925 19.244 120.468 19.244C119.73 19.244 119.133 19.5007 118.676 20.014C118.218 20.5273 117.99 21.2133 117.99 22.072C117.99 22.9307 118.218 23.6167 118.676 24.13C119.133 24.6433 119.73 24.9 120.468 24.9C120.925 24.9 121.331 24.7927 121.686 24.578C122.05 24.3633 122.33 24.0507 122.526 23.64H125.158C124.878 24.704 124.322 25.544 123.492 26.16C122.661 26.7667 121.662 27.07 120.496 27.07C119.544 27.07 118.69 26.86 117.934 26.44C117.187 26.0107 116.604 25.418 116.184 24.662C115.764 23.906 115.554 23.0427 115.554 22.072ZM135.136 17.172V27H132.742V22.954H129.018V27H126.624V17.172H129.018V21.022H132.742V17.172H135.136ZM142.982 25.264H139.314L138.726 27H136.22L139.776 17.172H142.548L146.104 27H143.57L142.982 25.264ZM142.366 23.416L141.148 19.818L139.944 23.416H142.366ZM152.198 27L150.154 23.29H149.58V27H147.186V17.172H151.204C151.979 17.172 152.637 17.3073 153.178 17.578C153.729 17.8487 154.14 18.222 154.41 18.698C154.681 19.1647 154.816 19.6873 154.816 20.266C154.816 20.9193 154.63 21.5027 154.256 22.016C153.892 22.5293 153.351 22.8933 152.632 23.108L154.9 27H152.198ZM149.58 21.596H151.064C151.503 21.596 151.83 21.4887 152.044 21.274C152.268 21.0593 152.38 20.756 152.38 20.364C152.38 19.9907 152.268 19.6967 152.044 19.482C151.83 19.2673 151.503 19.16 151.064 19.16H149.58V21.596ZM162.843 20.28C162.666 19.9533 162.409 19.706 162.073 19.538C161.747 19.3607 161.359 19.272 160.911 19.272C160.137 19.272 159.516 19.5287 159.049 20.042C158.583 20.546 158.349 21.2227 158.349 22.072C158.349 22.9773 158.592 23.6867 159.077 24.2C159.572 24.704 160.249 24.956 161.107 24.956C161.695 24.956 162.19 24.8067 162.591 24.508C163.002 24.2093 163.301 23.78 163.487 23.22H160.449V21.456H165.657V23.682C165.48 24.2793 165.177 24.8347 164.747 25.348C164.327 25.8613 163.791 26.2767 163.137 26.594C162.484 26.9113 161.747 27.07 160.925 27.07C159.955 27.07 159.087 26.86 158.321 26.44C157.565 26.0107 156.973 25.418 156.543 24.662C156.123 23.906 155.913 23.0427 155.913 22.072C155.913 21.1013 156.123 20.238 156.543 19.482C156.973 18.7167 157.565 18.124 158.321 17.704C159.077 17.2747 159.941 17.06 160.911 17.06C162.087 17.06 163.077 17.3447 163.879 17.914C164.691 18.4833 165.228 19.272 165.489 20.28H162.843ZM169.377 19.09V21.078H172.583V22.926H169.377V25.082H173.003V27H166.983V17.172H173.003V19.09H169.377ZM179.569 27L177.525 23.29H176.951V27H174.557V17.172H178.575C179.35 17.172 180.008 17.3073 180.549 17.578C181.1 17.8487 181.511 18.222 181.781 18.698C182.052 19.1647 182.187 19.6873 182.187 20.266C182.187 20.9193 182.001 21.5027 181.627 22.016C181.263 22.5293 180.722 22.8933 180.003 23.108L182.271 27H179.569ZM176.951 21.596H178.435C178.874 21.596 179.201 21.4887 179.415 21.274C179.639 21.0593 179.751 20.756 179.751 20.364C179.751 19.9907 179.639 19.6967 179.415 19.482C179.201 19.2673 178.874 19.16 178.435 19.16H176.951V21.596ZM190.213 27.098C189.494 27.098 188.85 26.9813 188.281 26.748C187.712 26.5147 187.254 26.1693 186.909 25.712C186.573 25.2547 186.396 24.704 186.377 24.06H188.925C188.962 24.424 189.088 24.704 189.303 24.9C189.518 25.0867 189.798 25.18 190.143 25.18C190.498 25.18 190.778 25.1007 190.983 24.942C191.188 24.774 191.291 24.5453 191.291 24.256C191.291 24.0133 191.207 23.8127 191.039 23.654C190.88 23.4953 190.68 23.3647 190.437 23.262C190.204 23.1593 189.868 23.0427 189.429 22.912C188.794 22.716 188.276 22.52 187.875 22.324C187.474 22.128 187.128 21.8387 186.839 21.456C186.55 21.0733 186.405 20.574 186.405 19.958C186.405 19.0433 186.736 18.3293 187.399 17.816C188.062 17.2933 188.925 17.032 189.989 17.032C191.072 17.032 191.944 17.2933 192.607 17.816C193.27 18.3293 193.624 19.048 193.671 19.972H191.081C191.062 19.6547 190.946 19.4073 190.731 19.23C190.516 19.0433 190.241 18.95 189.905 18.95C189.616 18.95 189.382 19.0293 189.205 19.188C189.028 19.3373 188.939 19.5567 188.939 19.846C188.939 20.1633 189.088 20.4107 189.387 20.588C189.686 20.7653 190.152 20.9567 190.787 21.162C191.422 21.3767 191.935 21.582 192.327 21.778C192.728 21.974 193.074 22.2587 193.363 22.632C193.652 23.0053 193.797 23.486 193.797 24.074C193.797 24.634 193.652 25.1427 193.363 25.6C193.083 26.0573 192.672 26.4213 192.131 26.692C191.59 26.9627 190.95 27.098 190.213 27.098ZM197.622 17.172V23.052C197.622 23.64 197.767 24.0927 198.056 24.41C198.346 24.7273 198.77 24.886 199.33 24.886C199.89 24.886 200.32 24.7273 200.618 24.41C200.917 24.0927 201.066 23.64 201.066 23.052V17.172H203.46V23.038C203.46 23.9153 203.274 24.6573 202.9 25.264C202.527 25.8707 202.023 26.328 201.388 26.636C200.763 26.944 200.063 27.098 199.288 27.098C198.514 27.098 197.818 26.9487 197.202 26.65C196.596 26.342 196.115 25.8847 195.76 25.278C195.406 24.662 195.228 23.9153 195.228 23.038V17.172H197.622ZM210.153 27L208.109 23.29H207.535V27H205.141V17.172H209.159C209.934 17.172 210.592 17.3073 211.133 17.578C211.684 17.8487 212.095 18.222 212.365 18.698C212.636 19.1647 212.771 19.6873 212.771 20.266C212.771 20.9193 212.585 21.5027 212.211 22.016C211.847 22.5293 211.306 22.8933 210.587 23.108L212.855 27H210.153ZM207.535 21.596H209.019C209.458 21.596 209.785 21.4887 209.999 21.274C210.223 21.0593 210.335 20.756 210.335 20.364C210.335 19.9907 210.223 19.6967 209.999 19.482C209.785 19.2673 209.458 19.16 209.019 19.16H207.535V21.596Z" fill="white"/>
<path d="M102.76 52.384C102.248 51.4453 101.544 50.7307 100.648 50.24C99.752 49.7493 98.7067 49.504 97.512 49.504C96.1893 49.504 95.016 49.8027 93.992 50.4C92.968 50.9973 92.168 51.8507 91.592 52.96C91.016 54.0693 90.728 55.3493 90.728 56.8C90.728 58.2933 91.016 59.5947 91.592 60.704C92.1893 61.8133 93.0107 62.6667 94.056 63.264C95.1013 63.8613 96.3173 64.16 97.704 64.16C99.4107 64.16 100.808 63.712 101.896 62.816C102.984 61.8987 103.699 60.6293 104.04 59.008H96.36V55.584H108.456V59.488C108.157 61.0453 107.517 62.4853 106.536 63.808C105.555 65.1307 104.285 66.1973 102.728 67.008C101.192 67.7973 99.464 68.192 97.544 68.192C95.3893 68.192 93.4373 67.712 91.688 66.752C89.96 65.7707 88.5947 64.416 87.592 62.688C86.6107 60.96 86.12 58.9973 86.12 56.8C86.12 54.6027 86.6107 52.64 87.592 50.912C88.5947 49.1627 89.96 47.808 91.688 46.848C93.4373 45.8667 95.3787 45.376 97.512 45.376C100.029 45.376 102.216 45.9947 104.072 47.232C105.928 48.448 107.208 50.1653 107.912 52.384H102.76ZM119.643 68.288C117.936 68.288 116.4 67.9147 115.035 67.168C113.669 66.4 112.592 65.3227 111.803 63.936C111.035 62.5493 110.651 60.9493 110.651 59.136C110.651 57.3227 111.045 55.7227 111.835 54.336C112.645 52.9493 113.744 51.8827 115.131 51.136C116.517 50.368 118.064 49.984 119.771 49.984C121.477 49.984 123.024 50.368 124.411 51.136C125.797 51.8827 126.885 52.9493 127.675 54.336C128.485 55.7227 128.891 57.3227 128.891 59.136C128.891 60.9493 128.475 62.5493 127.642 63.936C126.832 65.3227 125.723 66.4 124.315 67.168C122.928 67.9147 121.371 68.288 119.643 68.288ZM119.643 64.384C120.453 64.384 121.211 64.192 121.915 63.808C122.64 63.4027 123.216 62.8053 123.643 62.016C124.069 61.2267 124.283 60.2667 124.283 59.136C124.283 57.4507 123.835 56.16 122.939 55.264C122.064 54.3467 120.987 53.888 119.707 53.888C118.427 53.888 117.349 54.3467 116.475 55.264C115.621 56.16 115.195 57.4507 115.195 59.136C115.195 60.8213 115.611 62.1227 116.443 63.04C117.296 63.936 118.363 64.384 119.643 64.384ZM140.049 68.288C138.342 68.288 136.806 67.9147 135.441 67.168C134.075 66.4 132.998 65.3227 132.209 63.936C131.441 62.5493 131.057 60.9493 131.057 59.136C131.057 57.3227 131.451 55.7227 132.241 54.336C133.051 52.9493 134.15 51.8827 135.537 51.136C136.923 50.368 138.47 49.984 140.177 49.984C141.883 49.984 143.43 50.368 144.817 51.136C146.203 51.8827 147.291 52.9493 148.081 54.336C148.891 55.7227 149.297 57.3227 149.297 59.136C149.297 60.9493 148.881 62.5493 148.049 63.936C147.238 65.3227 146.129 66.4 144.721 67.168C143.334 67.9147 141.777 68.288 140.049 68.288ZM140.049 64.384C140.859 64.384 141.617 64.192 142.321 63.808C143.046 63.4027 143.622 62.8053 144.049 62.016C144.475 61.2267 144.689 60.2667 144.689 59.136C144.689 57.4507 144.241 56.16 143.345 55.264C142.47 54.3467 141.393 53.888 140.113 53.888C138.833 53.888 137.755 54.3467 136.881 55.264C136.027 56.16 135.601 57.4507 135.601 59.136C135.601 60.8213 136.017 62.1227 136.849 63.04C137.702 63.936 138.769 64.384 140.049 64.384ZM159.527 49.984C160.85 49.984 162.012 50.2507 163.015 50.784C164.018 51.296 164.807 51.968 165.383 52.8V50.272H169.895V68.128C169.895 69.7707 169.564 71.232 168.903 72.512C168.242 73.8133 167.25 74.8373 165.927 75.584C164.604 76.352 163.004 76.736 161.127 76.736C158.61 76.736 156.54 76.1493 154.919 74.976C153.319 73.8027 152.412 72.2027 152.199 70.176H156.647C156.882 70.9867 157.383 71.6267 158.151 72.096C158.94 72.5867 159.89 72.832 160.999 72.832C162.3 72.832 163.356 72.4373 164.167 71.648C164.978 70.88 165.383 69.7067 165.383 68.128V65.376C164.807 66.208 164.007 66.9013 162.983 67.456C161.98 68.0107 160.828 68.288 159.527 68.288C158.034 68.288 156.668 67.904 155.431 67.136C154.194 66.368 153.212 65.2907 152.487 63.904C151.783 62.496 151.431 60.8853 151.431 59.072C151.431 57.28 151.783 55.6907 152.487 54.304C153.212 52.9173 154.183 51.8507 155.399 51.104C156.636 50.3573 158.012 49.984 159.527 49.984ZM165.383 59.136C165.383 58.048 165.17 57.12 164.743 56.352C164.316 55.5627 163.74 54.9653 163.015 54.56C162.29 54.1333 161.511 53.92 160.679 53.92C159.847 53.92 159.079 54.1227 158.375 54.528C157.671 54.9333 157.095 55.5307 156.647 56.32C156.22 57.088 156.007 58.0053 156.007 59.072C156.007 60.1387 156.22 61.0773 156.647 61.888C157.095 62.6773 157.671 63.2853 158.375 63.712C159.1 64.1387 159.868 64.352 160.679 64.352C161.511 64.352 162.29 64.1493 163.015 63.744C163.74 63.3173 164.316 62.72 164.743 61.952C165.17 61.1627 165.383 60.224 165.383 59.136ZM178.751 44.32V68H174.271V44.32H178.751ZM199.657 58.752C199.657 59.392 199.614 59.968 199.529 60.48H186.569C186.675 61.76 187.123 62.7627 187.913 63.488C188.702 64.2133 189.673 64.576 190.825 64.576C192.489 64.576 193.673 63.8613 194.377 62.432H199.209C198.697 64.1387 197.715 65.5467 196.265 66.656C194.814 67.744 193.033 68.288 190.921 68.288C189.214 68.288 187.678 67.9147 186.313 67.168C184.969 66.4 183.913 65.3227 183.145 63.936C182.398 62.5493 182.025 60.9493 182.025 59.136C182.025 57.3013 182.398 55.6907 183.145 54.304C183.891 52.9173 184.937 51.8507 186.281 51.104C187.625 50.3573 189.171 49.984 190.921 49.984C192.606 49.984 194.11 50.3467 195.433 51.072C196.777 51.7973 197.811 52.832 198.537 54.176C199.283 55.4987 199.657 57.024 199.657 58.752ZM195.017 57.472C194.995 56.32 194.579 55.4027 193.769 54.72C192.958 54.016 191.966 53.664 190.793 53.664C189.683 53.664 188.745 54.0053 187.977 54.688C187.23 55.3493 186.771 56.2773 186.601 57.472H195.017ZM226.84 52.576C226.84 53.7707 226.552 54.8907 225.976 55.936C225.421 56.9813 224.536 57.824 223.32 58.464C222.125 59.104 220.61 59.424 218.776 59.424H215.032V68H210.552V45.664H218.776C220.504 45.664 221.976 45.9627 223.192 46.56C224.408 47.1573 225.314 47.9787 225.912 49.024C226.53 50.0693 226.84 51.2533 226.84 52.576ZM218.584 55.808C219.821 55.808 220.738 55.5307 221.336 54.976C221.933 54.4 222.232 53.6 222.232 52.576C222.232 50.4 221.016 49.312 218.584 49.312H215.032V55.808H218.584ZM234.501 44.32V68H230.021V44.32H234.501ZM237.775 59.072C237.775 57.28 238.127 55.6907 238.831 54.304C239.556 52.9173 240.527 51.8507 241.743 51.104C242.98 50.3573 244.356 49.984 245.871 49.984C247.193 49.984 248.345 50.2507 249.327 50.784C250.329 51.3173 251.129 51.9893 251.727 52.8V50.272H256.239V68H251.727V65.408C251.151 66.24 250.351 66.9333 249.327 67.488C248.324 68.0213 247.161 68.288 245.839 68.288C244.345 68.288 242.98 67.904 241.743 67.136C240.527 66.368 239.556 65.2907 238.831 63.904C238.127 62.496 237.775 60.8853 237.775 59.072ZM251.727 59.136C251.727 58.048 251.513 57.12 251.087 56.352C250.66 55.5627 250.084 54.9653 249.359 54.56C248.633 54.1333 247.855 53.92 247.023 53.92C246.191 53.92 245.423 54.1227 244.719 54.528C244.015 54.9333 243.439 55.5307 242.991 56.32C242.564 57.088 242.351 58.0053 242.351 59.072C242.351 60.1387 242.564 61.0773 242.991 61.888C243.439 62.6773 244.015 63.2853 244.719 63.712C245.444 64.1387 246.212 64.352 247.023 64.352C247.855 64.352 248.633 64.1493 249.359 63.744C250.084 63.3173 250.66 62.72 251.087 61.952C251.513 61.1627 251.727 60.224 251.727 59.136ZM277.574 50.272L266.598 76.384H261.83L265.67 67.552L258.566 50.272H263.59L268.166 62.656L272.806 50.272H277.574Z" fill="white"/>
<defs>
<filter id="filter0_ii_14_16" x="21" y="12" width="50.0002" height="60" filterUnits="userSpaceOnUse" color-interpolation-filters="sRGB">
<feFlood flood-opacity="0" result="BackgroundImageFix"/>
<feBlend mode="normal" in="SourceGraphic" in2="BackgroundImageFix" result="shape"/>
<feColorMatrix in="SourceAlpha" type="matrix" values="0 0 0 0 0 0 0 0 0 0 0 0 0 0 0 0 0 0 127 0" result="hardAlpha"/>
<feOffset dy="-0.795"/>
<feComposite in2="hardAlpha" operator="arithmetic" k2="-1" k3="1"/>
<feColorMatrix type="matrix" values="0 0 0 0 0 0 0 0 0 0 0 0 0 0 0 0 0 0 0.12 0"/>
<feBlend mode="normal" in2="shape" result="effect1_innerShadow_14_16"/>
<feColorMatrix in="SourceAlpha" type="matrix" values="0 0 0 0 0 0 0 0 0 0 0 0 0 0 0 0 0 0 127 0" result="hardAlpha"/>
<feOffset dy="0.795"/>
<feComposite in2="hardAlpha" operator="arithmetic" k2="-1" k3="1"/>
<feColorMatrix type="matrix" values="0 0 0 0 1 0 0 0 0 1 0 0 0 0 1 0 0 0 0.25 0"/>
<feBlend mode="normal" in2="effect1_innerShadow_14_16" result="effect2_innerShadow_14_16"/>
</filter>
<filter id="filter1_i_14_16" x="22.0024" y="41.999" width="36.1333" height="30.001" filterUnits="userSpaceOnUse" color-interpolation-filters="sRGB">
<feFlood flood-opacity="0" result="BackgroundImageFix"/>
<feBlend mode="normal" in="SourceGraphic" in2="BackgroundImageFix" result="shape"/>
<feColorMatrix in="SourceAlpha" type="matrix" values="0 0 0 0 0 0 0 0 0 0 0 0 0 0 0 0 0 0 127 0" result="hardAlpha"/>
<feOffset dy="-0.795"/>
<feComposite in2="hardAlpha" operator="arithmetic" k2="-1" k3="1"/>
<feColorMatrix type="matrix" values="0 0 0 0 0 0 0 0 0 0 0 0 0 0 0 0 0 0 0.08 0"/>
<feBlend mode="normal" in2="shape" result="effect1_innerShadow_14_16"/>
</filter>
<linearGradient id="paint0_linear_14_16" x1="46.6129" y1="15.6581" x2="7.57259" y2="51.8989" gradientUnits="userSpaceOnUse">
<stop stop-color="#00A0FF"/>
<stop offset="0.0066" stop-color="#00A1FF"/>
<stop offset="0.2601" stop-color="#00BEFF"/>
<stop offset="0.5122" stop-color="#00D2FF"/>
<stop offset="0.7604" stop-color="#00DFFF"/>
<stop offset="1" stop-color="#00E3FF"/>
</linearGradient>
<linearGradient id="paint1_linear_14_16" x1="72.6692" y1="41.9991" x2="20.2733" y2="41.9991" gradientUnits="userSpaceOnUse">
<stop stop-color="#FFE000"/>
<stop offset="0.4087" stop-color="#FFBD00"/>
<stop offset="0.7754" stop-color="#FFA500"/>
<stop offset="1" stop-color="#FF9C00"/>
</linearGradient>
<linearGradient id="paint2_linear_14_16" x1="53.1684" y1="47.3502" x2="0.224719" y2="96.4973" gradientUnits="userSpaceOnUse">
<stop stop-color="#FF3A44"/>
<stop offset="1" stop-color="#C31162"/>
</linearGradient>
<linearGradient id="paint3_linear_14_16" x1="15.2061" y1="-4.24568" x2="38.8469" y2="17.6999" gradientUnits="userSpaceOnUse">
<stop stop-color="#32A071"/>
<stop offset="0.0685" stop-color="#2DA771"/>
<stop offset="0.4762" stop-color="#15CF74"/>
<stop offset="0.8009" stop-color="#06E775"/>
<stop offset="1" stop-color="#00F076"/>
</linearGradient>
</defs>
</svg>
